<svg xmlns="http://www.w3.org/2000/svg" viewBox="0 0 24 24">
  <g fill="none" stroke-width="1" transform="translate(1 0.8) scale(0.0859375)">
    <path stroke="#747473" d="M101.85 50.22q.02.17.08.31a.59.58 82.1 0 0 .5.38q.3.02.6-.09M103.79 50.7l1.41-.16M112.04 49.63l1.91-.11M119.53 49.16l.68-.02M120.47 49.13q.75.1 1.34-.1M152.52 50.85q.59.19 1.04-.07"/>
    <path stroke="#a4a4a2" d="M153.79 49.79q.43-.75.46-1.55"/>
    <path stroke="#747473" d="m240.93 85.16-.01 1.35M230.08 113.25l-.39-.05a.21.2-80.5 0 0-.22.16q-.03.12-.07.27"/>
    <path stroke="#a4a4a2" d="M238.05 139.82q-.92.24-2.08.08"/>
    <path stroke="#747473" d="m231.04 187.37-1.07-.01M128.74 254.89q-.32-.1-.79 0"/>
    <path stroke="#a4a4a2" d="M91.71 235.1q-.3-.94-1.01-1.08"/>
    <path stroke="#747473" d="m88.91 236.2.09 1.25"/>
    <path stroke="#a4a4a2" d="M89.29 239.26q-.07.58.16.99"/>
    <path stroke="#747473" d="m89.54 240.54.11.69M89.86 242.21l.11.84M89.97 243.05q-.08.53.16 1.01M57.98 231.34l-2.09.04M25.68 187.3l-1.18.05"/>
    <path stroke="#838380" d="m19.15 140.03-1.48-.15"/>
    <path stroke="#363635" d="m237.72 139.96-.93.12"/>
    <path stroke="#838380" d="M34.69 175.19q.14.08.22.13a.23.22-73.5 0 1 .12.23c-2.07 17.69 2.14 35.05 14.27 48.07q3.31 3.56 6.93 5.68a1.19 1.19 0 0 0 1.78-.84q1.01-6.25 5.33-11.91a.62.61-32.4 0 1 1.09.24q3.75 16.82 18.23 26.07 1.74 1.11 4.32 2.02a.96.96 0 0 0 1.25-1.14q-1.92-7.63-1.3-15.99"/>
    <path stroke="#747473" d="M86.93 227.75q15.39 16.23 35.44 23.46c3.36 1.21 5.06 1.98 8.07.97 13.88-4.67 27.62-12.89 37.39-24.18"/>
    <path stroke="#838380" d="m167.83 228 .9.04"/>
    <path stroke="#747473" d="M168.73 228.04q.44 7.5-.27 10.44-.7 2.93-.89 5.69a.81.81 0 0 0 1.16.79c11.89-5.64 19.21-15.58 22.59-28.35a.53.53 0 0 1 .94-.19q4.24 5.62 5.51 12.27a.95.94-20.7 0 0 1.41.63c9.64-5.65 16.49-17.13 19.43-27.64q3.62-12.91 1.75-25.8a.64.64 0 0 1 1.12-.51l8.37 9.66a.75.75 0 0 0 1.29-.31q1.58-6.29 1.08-12.98-1.65-21.99-11.37-42.09a.4.39-88.1 0 1 .55-.52l15.3 8.84a.52.52 0 0 0 .77-.51q-.41-3.7-1.92-7.05-4.22-9.4-9.48-19.02a.45.45 0 0 1 .47-.66l12.11 2.04a.93.93 0 0 0 1.02-1.28q-4.65-10.93-12.37-19.15a.47.47 0 0 1 .22-.78c3.74-1.04 9.2-2.78 11.37-5.29a1.16 1.16 0 0 0-.16-1.68q-4.75-3.67-9.92-5.03a.61.61 0 0 1-.36-.92c4.9-7.51 6.81-17.33 7.13-26.21"/>
    <path stroke="#838380" d="M235.58 52.43q.5-3.37.47-6.92-.16-17.15-3.72-33.5c-.83-3.8-2.51-9.19-7.32-9.24-7.2-.09-15.17 3.63-21.12 7.11q-17.35 10.13-30.88 25.15-.41.44-.79.36"/>
    <path stroke="#747473" d="m172.22 35.39-1.11-6.82a1.61 1.61 0 0 0-2.48-1.08c-6.77 4.53-11.61 17.16-13.48 24.81a1.15 1.15 0 0 1-1.29.86q-26.04-4.22-52.63-.12a.67.66 78.9 0 1-.75-.51q-2.82-12.39-10.44-22.28-1.5-1.94-3.42-2.75a1.51 1.51 0 0 0-2 .84q-1.13 2.87-1.01 6.64a.44.44 0 0 1-.77.31Q70.27 21.3 54.3 11.45c-6.99-4.32-16.53-9.32-24.82-8.61-3.12.27-5.15 4.69-5.79 7.36q-5.15 21.43-3.73 43.58.89 13.74 7.21 25.16a.43.43 0 0 1-.25.63c-2.35.72-10.7 3.81-10.28 6.46q.13.78 1.64 1.59 4.07 2.19 9.31 3.81a.78.78 0 0 1 .35 1.26q-7.8 8.61-12.17 19.3a.61.61 0 0 0 .67.83l12.91-2.19a.32.32 0 0 1 .33.47q-4.88 9.04-8.74 17.1-2 4.16-2.88 9.03a.59.59 0 0 0 .87.61l14.96-8.63a.55.55 0 0 1 .77.72c-7.72 15.84-12.58 34.52-11.01 51.99q.18 1.94.79 2.89a1.08 1.08 0 0 0 1.72.13l8.53-9.75"/>
    <path stroke="#161613" d="m172.22 35.39-.32-.05a.51.49 82.5 0 1-.39-.31l-2.19-5.62a.37.37 0 0 0-.57-.16q-2.81 2.09-4.37 4.62-5.27 8.55-7.36 17.09a2.13 2.1-18 0 1-.42.81l-1.66 1.98a1.62 1.61-68.8 0 1-1.3.58q-4.95-.15-7.47-.94a5.13 4.84 51.9 0 0-1.46-.22h-10.54a.32.32 0 0 0-.1.63l7.73 2.59a2.84 2.83-77.4 0 1 1.91 3.02q-.37 3.06-1.51 7.1-.39 1.37-1 10.37a4.96 4.67-35.7 0 1-.23 1.18l-.65 1.93a5.59 5.56 51 0 0-.25 2.44q.92 7.42-1.84 13.43"/>
    <path stroke="#828281" d="M138.23 95.86q.4-19.26 4.17-37.7a.51.51 0 0 0-.46-.61q-14.07-.87-28.34.01a.47.47 0 0 0-.43.56q3.93 20.61 4.37 39.37.33 14.06-2.88 25.81-2.39 8.76-8.56 15.85"/>
    <path stroke="#161613" d="M106.1 139.15q6.15-10.34 8.32-20.87.74-3.61 1.02-5.16.47-2.59.47-5.19.02-5.48.01-20.92a8.64 8.23 40.4 0 0-.18-1.73q-.82-3.77-.77-6.99c.06-2.96-1.14-5.6-1.1-8.62a4.21 4.08 38.1 0 0-.17-1.24c-.65-2.14-.68-5.44-1.81-8.07q-.87-2.05 1.31-3.76a2.39 2.38 24.1 0 1 1.29-.49c1.32-.11 4.21-.37 5.28-1.44a.66.66 0 0 0-.44-1.13l-8.71-.38a6.84 6.67 35.7 0 0-2.59.39q-2.89 1.04-6.03.87a2.31 2.21-27.8 0 1-.95-.27c-2.89-1.55-3-4.37-3.96-7.66-1.54-5.28-5.1-13.14-9.76-17.24a1.23 1.23 0 0 0-2.02.68c-.21 1.02-.05 4.6-.95 5.73a1.58 1.57 43 0 1-2.4.08Q68.14 20.5 50.41 10.55q-3.12-1.75-7.25-3.49c-3.57-1.51-14.13-5.51-16.6-.95-3.1 5.73-3.27 13.26-4.4 18.77a4.83 4.49 51.7 0 0-.09 1.1q.16 3.71-.74 6.91a7.15 6.77 53.9 0 0-.25 1.93q.1 7.23-.05 12.94-.12 4.44.87 10.71c1.08 6.86 2.77 12.96 6.01 19.21a2.25 2.25 0 0 1-1 3.04c-2.01 1-5.99 2-8.38 4.36a.59.58-45.3 0 0 0 .83c2.47 2.47 6.76 3.47 9.14 4.41a2.2 2.2 0 0 1 .82 3.54c-4.36 4.77-8.34 10.07-10.33 16.09a.53.53 0 0 0 .42.69q2.41.4 3.03.22 3.65-1.07 7.09-1.45a1.89 1.89 0 0 1 1.86 2.8q-6.25 11.13-8.99 17.15-1.54 3.4-1.51 5.64a.5.5 0 0 0 .75.42l12.59-7.27a1.73 1.73 0 0 1 2.4 2.28q-8.85 17.34-10.58 36.34-.61 6.75.05 15a.68.68 0 0 0 1.17.42q3.44-3.53 7.41-7.49a.69.63-42.4 0 1 .98 0q.18.22-.14.49M235.58 52.43q-.34-3.7-1.27.39-.46 2.02-.58 4.19c-.23 4.36-1.5 8.02-2.35 12.26q-.87 4.31-3.78 8.39a2.07 2.07 0 0 0 1.03 3.16c3.67 1.22 6.04 1.99 8.36 4.17a1.12 1.12 0 0 1-.36 1.86l-9.53 3.72a1.71 1.71 0 0 0-.57 2.82q6.7 6.49 10.93 16.62a.47.47 0 0 1-.33.64c-2.94.67-7.07-.58-9.82-1.14a2.11 2.11 0 0 0-2.21 3.17q4.77 7.7 8.96 17.77.74 1.78 1.27 4.19a.38.38 0 0 1-.49.45q-1.88-.62-4.09-2.3a.14.11-7 0 0-.05-.03l-8.65-4.74a1.09 1.07 44.5 0 0-1.03 0q-2.34 1.28-.97 3.4c3.4 5.3 3.96 8.68 6.79 17.35 1.52 4.67 2.57 11.13 2.94 14.88q.17 1.77.85 3.58a2.95 2.71-61 0 1 .17.71q.93 7.61-.77 14.19a.41.41 0 0 1-.71.17q-2.43-2.75-6.89-7.34a1.99 1.92-47.6 0 0-2.91.18q-.68.82-.3 2.38c1.84 7.65-.14 17.73-2.33 25.57q-2.29 8.21-9.01 17.09c-2.49 3.3-4.81 5.98-8.17 7.39a.91.9-13 0 1-1.26-.78c-.18-3.44-2.57-6.72-5.07-10.73a1.22 1.18 81.7 0 0-.66-.51q-2.2-.69-2.66 1.05-2.51 9.48-7.98 16.51-4.44 5.71-9.37 8.57-1.72 1.01-2.88 1.16a.71.71 0 0 1-.79-.87q1.59-6.79.73-13.76a.4.4 0 0 0-.27-.33q-.39-.14-.77.16"/>
    <path stroke="#161613" d="M167.83 228q-.04-.35-.17-.41-.54-.26-1 .18c-3.25 3.13-6.05 6.49-9.89 9.27q-10.22 7.41-21.84 12.07-3 1.2-6.29 1.72-1.01.16-1.36-.19a.11.11 0 0 1 .1-.19q.02 0 .19.09a.77.76 40.9 0 0 .8-.05q1.17-.8 1.99-1.11.39-.15.77-.04.59.16.76-.16c.31-.62 2.86-1.61 4.8-2.62q.66-.33 1.03-.28.6.09.95-.35.34-.43 1.18-.88 6.36-3.37 10.99-6.31a3.92 3.49 3.3 0 0 .67-.53q1.52-1.52 2.98-2.15a1.87 1.85-82.3 0 0 .75-.58q.84-1.09 5.13-4.32 3.38-2.55 6.72-7.42a1.46.68-34 0 1 .11-.14l1.5-1.54a1.12 1.12 0 0 1 1.89.49l1.42 5.3a1.92 1.69 41.3 0 1 .06.46l-.03 7.43a1.82 1.81-3.2 0 0 2.03 1.81q.46-.04 1.55-.95 1.82-1.54 2.95-2.62a4.85 4.61-7.5 0 0 .71-.88q1.38-2.27 3.06-3.92a3.33 3.31-8 0 0 .6-.79q3.13-5.63 4.69-12.31a3.96 3.8 53.3 0 0 .12-.96q.02-4.24.96-7.49a.66.66 0 0 1 1.07-.3q7.01 6.32 9.79 15.65a.34.34 0 0 0 .54.17q1.15-.92 1.78-.82a.67.67 0 0 0 .7-.34q2.34-4.23 2.55-6.01.58-5.11-1.29-12.16c-2.1-7.97-5.72-15.95-11.52-22.06-4.56-4.8-8.87-8.73-15.09-9.45q-3.48-.4-5.63 2.73a2.46 2.45 67.1 0 0-.4.99c-1.12 7.2-5.46 12.25-11.85 15.64a4.89 4.86 87.7 0 0-2.22 2.42c-1 2.37-1.46 3.74-2.57 5.65q-5.75 9.85-16.58 13.16-3.48 1.07-8.55 1.14-6.78.1-8.66-.31-14.23-3.05-20.54-15.98a2.76 2.52-66.3 0 1-.23-.68q-.37-1.79-1.54-3.93a.72.69-88.9 0 0-.25-.27l-7.63-5.14a1.77 1.68 87.8 0 1-.43-.42l-3.5-4.74a.94.89-77.1 0 1-.13-.22l-3.17-7.72a1.59 1.59 0 0 0-.45-.61c-7.39-5.89-18.78 6.15-22.62 11.78q-6.79 9.93-9.52 21.37a4.36 4.3 50.9 0 0-.12 1.24q.16 3.43-.14 4.43a2.36 2.31-41.3 0 0-.07.93q.68 5.49 2.5 9.04a1.82 1.82 0 0 0 3.37-.36q1.58-5.8 5.7-10.96 1.53-1.92 3.73-3.22"/>
    <path stroke="#464642" d="M65.74 208.27q.2.26.52.25"/>
    <path stroke="#161613" d="M66.26 208.52c1.24 3.8 1.82 8.47 2.87 11.51q3.59 10.35 11.99 17.76a.88.87-33.3 0 0 .84.17q2.21-.7 2.24-3.93.04-3.66-.11-8.55a1.38 1.36-32.1 0 1 .16-.68l1.29-2.59a.95.94 37.9 0 1 1.56-.19l7.84 9.06a.11.11 0 0 1-.06.19q-.16.03-.25-.09-.49-.67-.99-.6a.36.36 0 0 0-.21.61l1.43 1.41a.09.07 39.3 0 1 .02.1l-.16.27a.23.23 0 0 1-.34.07c-1.6-1.22-3.76-2.8-4.82-4.49q-.53-.86-2.63-.8"/>
    <path stroke="#91918f" d="M106.1 139.15q-2.58 3.31-10.12 10.82-3.98 3.96-6.81 10.71c-3.4 8.12-3.08 17.02 3.18 23.37 8.13 8.25 21.65 7.63 29.74-.24q2.33-2.27 3.46-6.35a1.42 1.42 0 0 0-1.14-1.77q-8.52-1.38-12.38-8.94c-2.2-4.32-3.58-11.02-.74-15.02 3.37-4.74 9.33-6.07 15.45-6.24 7.81-.22 18.4 1.82 19.13 10.72.74 8.99-5.02 18.01-14.49 19.42a1.55 1.54-12.5 0 0-1.26 1.97q1.79 5.95 7.2 9.15c14.17 8.38 33.12-.62 31.19-18.43-1.04-9.66-6.85-16.87-13.98-23.53-6.46-6.04-11.16-13.24-13.53-21.54q-3.79-13.22-2.77-27.39"/>
    <path stroke="#363635" d="M66.26 208.52q.23-.28.32-.51a.26.26 0 0 0-.44-.25l-.4.51"/>
    <path stroke="#91918f" d="M78.32 102.35a1.21 1.21 0 0 0 1.68 1.23c6.49-2.73 11.01-4.9 18.49-2.96a1.69 1.69 0 0 0 2.09-1.4l.02-.15a2.36 2.35 13.5 0 0-1.57-2.55q-10.18-3.48-18.92 3.08-1.65 1.24-1.79 2.75M177.4 102.33q-.14-1.51-1.79-2.74-8.73-6.54-18.9-3.06a2.35 2.34-13.5 0 0-1.56 2.55l.02.15a1.68 1.68 0 0 0 2.09 1.39c7.46-1.94 11.98.22 18.46 2.94a1.21 1.21 0 0 0 1.68-1.23M97.08 118.64a4.77 4.77 0 0 0-4.77-4.77 4.77 4.77 0 0 0-4.77 4.77 4.77 4.77 0 0 0 4.77 4.77 4.77 4.77 0 0 0 4.77-4.77M167.97 118.66a4.75 4.75 0 0 0-4.75-4.75 4.75 4.75 0 0 0-4.75 4.75 4.75 4.75 0 0 0 4.75 4.75 4.75 4.75 0 0 0 4.75-4.75"/>
    <path stroke="#464642" d="M127.81 155.14q5.33 0 12.32 1.47a.58.57 84.8 0 0 .65-.79c-1.75-4.23-8.56-5.22-12.97-5.22-4.42 0-11.23.99-12.97 5.23a.58.57-84.8 0 0 .65.78q6.99-1.47 12.32-1.47"/>
    <path stroke="#91918f" d="M127.84 210.55c9.85 0 19.21-5.77 23.55-14.67a.42.42 0 0 0-.41-.6q-14.31 1.41-22.79-9.74-.12-.16-.35-.16-.23 0-.35.16-8.49 11.15-22.79 9.74a.42.42 0 0 0-.42.6c4.34 8.9 13.71 14.67 23.56 14.67"/>
    <path stroke="#828281" d="M127.86 248.53q.34 0 .7-.21.5-.31.64-.36 23.5-8.04 38.54-26.65a2.47 2.4 3.5 0 1 .64-.55q2.45-1.49 3.39 1.22 2.17 6.24 1.47 14.17a.42.42 0 0 0 .68.37c9.14-7.34 13.57-18.46 13.39-30.01a1.19 1.18-70.9 0 1 1.93-.94q7.79 6.33 11.17 16.13a.68.68 0 0 0 1.24.11c6.21-11.44-2.03-29.47-9.25-38.41-3.79-4.7-12-12.08-18.41-9.13a2.14 2.12-6.7 0 0-1.18 1.48q-2.52 11.77-13.29 16.94a2.73 2.71-3.4 0 0-1.38 1.54c-4.73 13.4-15.78 21.35-30.28 21.35-14.5 0-25.55-7.95-30.28-21.35a2.73 2.71 3.4 0 0-1.38-1.54q-10.77-5.17-13.29-16.94a2.14 2.12 6.7 0 0-1.18-1.48c-6.41-2.95-14.62 4.43-18.41 9.13-7.22 8.94-15.46 26.97-9.25 38.41a.68.68 0 0 0 1.24-.11q3.38-9.8 11.17-16.13a1.19 1.18 70.9 0 1 1.93.94c-.18 11.55 4.25 22.67 13.39 30.01a.42.42 0 0 0 .68-.37q-.7-7.93 1.47-14.17.94-2.71 3.39-1.22a2.47 2.4-3.5 0 1 .64.55q15.04 18.61 38.54 26.65.14.05.64.36.36.21.7.21"/>
    <path fill="#e2e2e1" fill-opacity=".996" d="M101.85 50.22q.02.17.08.31a.59.58 82.1 0 0 .5.38q.3.02.6-.09l.76-.12 1.41-.16 6.84-.91 1.91-.11 5.58-.36.68-.02q.13 0 .26-.01.75.1 1.34-.1 15.39-.54 30.71 1.82.59.19 1.04-.07l.23-.99q.43-.75.46-1.55 3.06-10.02 7.69-16.52 3.55-4.99 5.45-5.86c4.74-2.17 5.32 1.33 6.32 4.73a.33.33 0 0 0 .55.14c10.17-10.08 20.56-18.52 32.81-24.92 5.75-3 20.23-9.39 24.69-1.08q1.91 3.56 2.8 7.75 3.57 16.83 3.42 34.78c-.09 10.52-1.85 21.66-6.74 30.48a.47.47 0 0 0 .25.67c2.87 1.03 8.43 3.48 9.44 6.75l-.01 1.35c-1.32 3.11-7.21 5.15-10.21 6.03a.38.37-28.9 0 0-.18.61q6.95 7.97 10.89 17.62c2.72 6.65-9.18 3.08-11.34 2.48l-.39-.05a.21.2-80.5 0 0-.22.16q-.03.12-.07.27 4.79 8.35 8.43 17.26c1.01 2.46 2.83 7.6.22 8.93q-.92.24-2.08.08l-10.66-6.5a.35.35 0 0 0-.5.44q8.84 19.54 9.4 40.33c.09 3.26.16 11.76-3.17 13.2l-1.07-.01c-2.23-.71-5.79-5.93-6.7-7.04a.25.25 0 0 0-.45.17c1.2 18.17-4.99 36.32-18.95 48.02-2.53 2.12-7.26 5.48-8.3-.13q-.41-2.18-2.51-7.47a.55.55 0 0 0-1.04.04q-5.26 17.04-21.85 25.53a2.68 2.66-63.7 0 1-.67.23q-3.38.6-4.07-2.13a1.01.8 48 0 1-.02-.33l1.67-11.44a.38.37 72.2 0 0-.63-.33q-16.01 15.78-37.71 22.41-.32-.1-.79 0-1.12-.02-2.2-.36-19.14-6.11-34.04-19.43-.3-.94-1.01-1.08l-1.62-1.53a.31.31 0 0 0-.52.25l.35 3.46.09 1.25.29 1.81q-.07.58.16.99.04.15.09.29l.11.69.21.98.11.84q-.08.53.16 1.01c-.33 4.09-4.98 2.72-7.22 1.2q-1.38-.93-1.71-1.15-13.35-8.55-17.82-23.46a.4.4 0 0 0-.74-.05q-2.1 4.65-3 9.03-.2 1-1.66 1.71l-2.09.04q-5.86-3.44-10-8.54-14.92-18.39-13.18-42.38a.25.25 0 0 0-.45-.18c-1.37 1.7-4.45 6.22-6.58 7.02l-1.18.05c-3.52-1.39-3.36-11.61-3.18-15.05q1.04-19.84 9.36-38.51a.35.35 0 0 0-.5-.44l-11.03 6.68-1.48-.15c-3.03-1.33-.73-7.43.25-9.74q3.65-8.65 8.18-16.43a.38.37-82.7 0 0-.42-.55q-3.65 1.02-7.9 1.53c-2.96.35-4.89-.92-3.63-4q3.88-9.52 10.74-17.41a.5.5 0 0 0-.21-.8q-4.9-1.66-7.57-3.28-3.34-2.02-2.17-4.97a2.7 2.59-12.4 0 1 .58-.87q3.13-3.04 8.57-4.92a.45.45 0 0 0 .25-.64c-4.82-8.89-6.61-19.58-6.75-30.06q-.26-19.04 3.82-37.02c.56-2.5 2.32-7.07 4.73-8.62C32.58-2.03 44.65 3.54 50.8 7q16.71 9.37 30.39 23.69a.39.38-58 0 0 .64-.15c1.13-3.31 1.58-6.93 6.3-4.7q1.92.91 5.22 5.76 5.83 8.57 8.5 18.62ZM34.69 175.19q.14.08.22.13a.23.22-73.5 0 1 .12.23c-2.07 17.69 2.14 35.05 14.27 48.07q3.31 3.56 6.93 5.68a1.19 1.19 0 0 0 1.78-.84q1.01-6.25 5.33-11.91a.62.61-32.4 0 1 1.09.24q3.75 16.82 18.23 26.07 1.74 1.11 4.32 2.02a.96.96 0 0 0 1.25-1.14q-1.92-7.63-1.3-15.99 15.39 16.23 35.44 23.46c3.36 1.21 5.06 1.98 8.07.97 13.88-4.67 27.62-12.89 37.39-24.18l.9.04q.44 7.5-.27 10.44-.7 2.93-.89 5.69a.81.81 0 0 0 1.16.79c11.89-5.64 19.21-15.58 22.59-28.35a.53.53 0 0 1 .94-.19q4.24 5.62 5.51 12.27a.95.94-20.7 0 0 1.41.63c9.64-5.65 16.49-17.13 19.43-27.64q3.62-12.91 1.75-25.8a.64.64 0 0 1 1.12-.51l8.37 9.66a.75.75 0 0 0 1.29-.31q1.58-6.29 1.08-12.98-1.65-21.99-11.37-42.09a.4.39-88.1 0 1 .55-.52l15.3 8.84a.52.52 0 0 0 .77-.51q-.41-3.7-1.92-7.05-4.22-9.4-9.48-19.02a.45.45 0 0 1 .47-.66l12.11 2.04a.93.93 0 0 0 1.02-1.28q-4.65-10.93-12.37-19.15a.47.47 0 0 1 .22-.78c3.74-1.04 9.2-2.78 11.37-5.29a1.16 1.16 0 0 0-.16-1.68q-4.75-3.67-9.92-5.03a.61.61 0 0 1-.36-.92c4.9-7.51 6.81-17.33 7.13-26.21q.5-3.37.47-6.92-.16-17.15-3.72-33.5c-.83-3.8-2.51-9.19-7.32-9.24-7.2-.09-15.17 3.63-21.12 7.11q-17.35 10.13-30.88 25.15-.41.44-.79.36l-1.11-6.82a1.61 1.61 0 0 0-2.48-1.08c-6.77 4.53-11.61 17.16-13.48 24.81a1.15 1.15 0 0 1-1.29.86q-26.04-4.22-52.63-.12a.67.66 78.9 0 1-.75-.51q-2.82-12.39-10.44-22.28-1.5-1.94-3.42-2.75a1.51 1.51 0 0 0-2 .84q-1.13 2.87-1.01 6.64a.44.44 0 0 1-.77.31Q70.27 21.3 54.3 11.45c-6.99-4.32-16.53-9.32-24.82-8.61-3.12.27-5.15 4.69-5.79 7.36q-5.15 21.43-3.73 43.58.89 13.74 7.21 25.16a.43.43 0 0 1-.25.63c-2.35.72-10.7 3.81-10.28 6.46q.13.78 1.64 1.59 4.07 2.19 9.31 3.81a.78.78 0 0 1 .35 1.26q-7.8 8.61-12.17 19.3a.61.61 0 0 0 .67.83l12.91-2.19a.32.32 0 0 1 .33.47q-4.88 9.04-8.74 17.1-2 4.16-2.88 9.03a.59.59 0 0 0 .87.61l14.96-8.63a.55.55 0 0 1 .77.72c-7.72 15.84-12.58 34.52-11.01 51.99q.18 1.94.79 2.89a1.08 1.08 0 0 0 1.72.13l8.53-9.75Z"/>
    <path fill="#060605" d="m172.22 35.39-.32-.05a.51.49 82.5 0 1-.39-.31l-2.19-5.62a.37.37 0 0 0-.57-.16q-2.81 2.09-4.37 4.62-5.27 8.55-7.36 17.09a2.13 2.1-18 0 1-.42.81l-1.66 1.98a1.62 1.61-68.8 0 1-1.3.58q-4.95-.15-7.47-.94a5.13 4.84 51.9 0 0-1.46-.22h-10.54a.32.32 0 0 0-.1.63l7.73 2.59a2.84 2.83-77.4 0 1 1.91 3.02q-.37 3.06-1.51 7.1-.39 1.37-1 10.37a4.96 4.67-35.7 0 1-.23 1.18l-.65 1.93a5.59 5.56 51 0 0-.25 2.44q.92 7.42-1.84 13.43.4-19.26 4.17-37.7a.51.51 0 0 0-.46-.61q-14.07-.87-28.34.01a.47.47 0 0 0-.43.56q3.93 20.61 4.37 39.37.33 14.06-2.88 25.81-2.39 8.76-8.56 15.85 6.15-10.34 8.32-20.87.74-3.61 1.02-5.16.47-2.59.47-5.19.02-5.48.01-20.92a8.64 8.23 40.4 0 0-.18-1.73q-.82-3.77-.77-6.99c.06-2.96-1.14-5.6-1.1-8.62a4.21 4.08 38.1 0 0-.17-1.24c-.65-2.14-.68-5.44-1.81-8.07q-.87-2.05 1.31-3.76a2.39 2.38 24.1 0 1 1.29-.49c1.32-.11 4.21-.37 5.28-1.44a.66.66 0 0 0-.44-1.13l-8.71-.38a6.84 6.67 35.7 0 0-2.59.39q-2.89 1.04-6.03.87a2.31 2.21-27.8 0 1-.95-.27c-2.89-1.55-3-4.37-3.96-7.66-1.54-5.28-5.1-13.14-9.76-17.24a1.23 1.23 0 0 0-2.02.68c-.21 1.02-.05 4.6-.95 5.73a1.58 1.57 43 0 1-2.4.08Q68.14 20.5 50.41 10.55q-3.12-1.75-7.25-3.49c-3.57-1.51-14.13-5.51-16.6-.95-3.1 5.73-3.27 13.26-4.4 18.77a4.83 4.49 51.7 0 0-.09 1.1q.16 3.71-.74 6.91a7.15 6.77 53.9 0 0-.25 1.93q.1 7.23-.05 12.94-.12 4.44.87 10.71c1.08 6.86 2.77 12.96 6.01 19.21a2.25 2.25 0 0 1-1 3.04c-2.01 1-5.99 2-8.38 4.36a.59.58-45.3 0 0 0 .83c2.47 2.47 6.76 3.47 9.14 4.41a2.2 2.2 0 0 1 .82 3.54c-4.36 4.77-8.34 10.07-10.33 16.09a.53.53 0 0 0 .42.69q2.41.4 3.03.22 3.65-1.07 7.09-1.45a1.89 1.89 0 0 1 1.86 2.8q-6.25 11.13-8.99 17.15-1.54 3.4-1.51 5.64a.5.5 0 0 0 .75.42l12.59-7.27a1.73 1.73 0 0 1 2.4 2.28q-8.85 17.34-10.58 36.34-.61 6.75.05 15a.68.68 0 0 0 1.17.42q3.44-3.53 7.41-7.49a.69.63-42.4 0 1 .98 0q.18.22-.14.49l-8.53 9.75a1.08 1.08 0 0 1-1.72-.13q-.61-.95-.79-2.89c-1.57-17.47 3.29-36.15 11.01-51.99a.55.55 0 0 0-.77-.72l-14.96 8.63a.59.59 0 0 1-.87-.61q.88-4.87 2.88-9.03 3.86-8.06 8.74-17.1a.32.32 0 0 0-.33-.47l-12.91 2.19a.61.61 0 0 1-.67-.83q4.37-10.69 12.17-19.3a.78.78 0 0 0-.35-1.26q-5.24-1.62-9.31-3.81-1.51-.81-1.64-1.59c-.42-2.65 7.93-5.74 10.28-6.46a.43.43 0 0 0 .25-.63q-6.32-11.42-7.21-25.16-1.42-22.15 3.73-43.58c.64-2.67 2.67-7.09 5.79-7.36 8.29-.71 17.83 4.29 24.82 8.61q15.97 9.85 28.54 23.84a.44.44 0 0 0 .77-.31q-.12-3.77 1.01-6.64a1.51 1.51 0 0 1 2-.84q1.92.81 3.42 2.75 7.62 9.89 10.44 22.28a.67.66 78.9 0 0 .75.51q26.59-4.1 52.63.12a1.15 1.15 0 0 0 1.29-.86c1.87-7.65 6.71-20.28 13.48-24.81a1.61 1.61 0 0 1 2.48 1.08l1.11 6.82Z"/>
    <path fill="#252520" d="M235.58 52.43q-.34-3.7-1.27.39-.46 2.02-.58 4.19c-.23 4.36-1.5 8.02-2.35 12.26q-.87 4.31-3.78 8.39a2.07 2.07 0 0 0 1.03 3.16c3.67 1.22 6.04 1.99 8.36 4.17a1.12 1.12 0 0 1-.36 1.86l-9.53 3.72a1.71 1.71 0 0 0-.57 2.82q6.7 6.49 10.93 16.62a.47.47 0 0 1-.33.64c-2.94.67-7.07-.58-9.82-1.14a2.11 2.11 0 0 0-2.21 3.17q4.77 7.7 8.96 17.77.74 1.78 1.27 4.19a.38.38 0 0 1-.49.45q-1.88-.62-4.09-2.3a.14.11-7 0 0-.05-.03l-8.65-4.74a1.09 1.07 44.5 0 0-1.03 0q-2.34 1.28-.97 3.4c3.4 5.3 3.96 8.68 6.79 17.35 1.52 4.67 2.57 11.13 2.94 14.88q.17 1.77.85 3.58a2.95 2.71-61 0 1 .17.71q.93 7.61-.77 14.19a.41.41 0 0 1-.71.17q-2.43-2.75-6.89-7.34a1.99 1.92-47.6 0 0-2.91.18q-.68.82-.3 2.38c1.84 7.65-.14 17.73-2.33 25.57q-2.29 8.21-9.01 17.09c-2.49 3.3-4.81 5.98-8.17 7.39a.91.9-13 0 1-1.26-.78c-.18-3.44-2.57-6.72-5.07-10.73a1.22 1.18 81.7 0 0-.66-.51q-2.2-.69-2.66 1.05-2.51 9.48-7.98 16.51-4.44 5.71-9.37 8.57-1.72 1.01-2.88 1.16a.71.71 0 0 1-.79-.87q1.59-6.79.73-13.76a.4.4 0 0 0-.27-.33q-.39-.14-.77.16l-.9-.04q-.04-.35-.17-.41-.54-.26-1 .18c-3.25 3.13-6.05 6.49-9.89 9.27q-10.22 7.41-21.84 12.07-3 1.2-6.29 1.72-1.01.16-1.36-.19a.11.11 0 0 1 .1-.19q.02 0 .19.09a.77.76 40.9 0 0 .8-.05q1.17-.8 1.99-1.11.39-.15.77-.04.59.16.76-.16c.31-.62 2.86-1.61 4.8-2.62q.66-.33 1.03-.28.6.09.95-.35.34-.43 1.18-.88 6.36-3.37 10.99-6.31a3.92 3.49 3.3 0 0 .67-.53q1.52-1.52 2.98-2.15a1.87 1.85-82.3 0 0 .75-.58q.84-1.09 5.13-4.32 3.38-2.55 6.72-7.42a1.46.68-34 0 1 .11-.14l1.5-1.54a1.12 1.12 0 0 1 1.89.49l1.42 5.3a1.92 1.69 41.3 0 1 .06.46l-.03 7.43a1.82 1.81-3.2 0 0 2.03 1.81q.46-.04 1.55-.95 1.82-1.54 2.95-2.62a4.85 4.61-7.5 0 0 .71-.88q1.38-2.27 3.06-3.92a3.33 3.31-8 0 0 .6-.79q3.13-5.63 4.69-12.31a3.96 3.8 53.3 0 0 .12-.96q.02-4.24.96-7.49a.66.66 0 0 1 1.07-.3q7.01 6.32 9.79 15.65a.34.34 0 0 0 .54.17q1.15-.92 1.78-.82a.67.67 0 0 0 .7-.34q2.34-4.23 2.55-6.01.58-5.11-1.29-12.16c-2.1-7.97-5.72-15.95-11.52-22.06-4.56-4.8-8.87-8.73-15.09-9.45q-3.48-.4-5.63 2.73a2.46 2.45 67.1 0 0-.4.99c-1.12 7.2-5.46 12.25-11.85 15.64a4.89 4.86 87.7 0 0-2.22 2.42c-1 2.37-1.46 3.74-2.57 5.65q-5.75 9.85-16.58 13.16-3.48 1.07-8.55 1.14-6.78.1-8.66-.31-14.23-3.05-20.54-15.98a2.76 2.52-66.3 0 1-.23-.68q-.37-1.79-1.54-3.93a.72.69-88.9 0 0-.25-.27l-7.63-5.14a1.77 1.68 87.8 0 1-.43-.42l-3.5-4.74a.94.89-77.1 0 1-.13-.22l-3.17-7.72a1.59 1.59 0 0 0-.45-.61c-7.39-5.89-18.78 6.15-22.62 11.78q-6.79 9.93-9.52 21.37a4.36 4.3 50.9 0 0-.12 1.24q.16 3.43-.14 4.43a2.36 2.31-41.3 0 0-.07.93q.68 5.49 2.5 9.04a1.82 1.82 0 0 0 3.37-.36q1.58-5.8 5.7-10.96 1.53-1.92 3.73-3.22.2.26.52.25c1.24 3.8 1.82 8.47 2.87 11.51q3.59 10.35 11.99 17.76a.88.87-33.3 0 0 .84.17q2.21-.7 2.24-3.93.04-3.66-.11-8.55a1.38 1.36-32.1 0 1 .16-.68l1.29-2.59a.95.94 37.9 0 1 1.56-.19l7.84 9.06a.11.11 0 0 1-.06.19q-.16.03-.25-.09-.49-.67-.99-.6a.36.36 0 0 0-.21.61l1.43 1.41a.09.07 39.3 0 1 .02.1l-.16.27a.23.23 0 0 1-.34.07c-1.6-1.22-3.76-2.8-4.82-4.49q-.53-.86-2.63-.8-.62 8.36 1.3 15.99a.96.96 0 0 1-1.25 1.14q-2.58-.91-4.32-2.02-14.48-9.25-18.23-26.07a.62.61-32.4 0 0-1.09-.24q-4.32 5.66-5.33 11.91a1.19 1.19 0 0 1-1.78.84q-3.62-2.12-6.93-5.68c-12.13-13.02-16.34-30.38-14.27-48.07a.23.22-73.5 0 0-.12-.23q-.08-.05-.22-.13.32-.27.14-.49a.69.63-42.4 0 0-.98 0q-3.97 3.96-7.41 7.49a.68.68 0 0 1-1.17-.42q-.66-8.25-.05-15 1.73-19 10.58-36.34a1.73 1.73 0 0 0-2.4-2.28l-12.59 7.27a.5.5 0 0 1-.75-.42q-.03-2.24 1.51-5.64 2.74-6.02 8.99-17.15a1.89 1.89 0 0 0-1.86-2.8q-3.44.38-7.09 1.45-.62.18-3.03-.22a.53.53 0 0 1-.42-.69c1.99-6.02 5.97-11.32 10.33-16.09a2.2 2.2 0 0 0-.82-3.54c-2.38-.94-6.67-1.94-9.14-4.41a.59.58-45.3 0 1 0-.83c2.39-2.36 6.37-3.36 8.38-4.36a2.25 2.25 0 0 0 1-3.04c-3.24-6.25-4.93-12.35-6.01-19.21q-.99-6.27-.87-10.71.15-5.71.05-12.94a7.15 6.77 53.9 0 1 .25-1.93q.9-3.2.74-6.91a4.83 4.49 51.7 0 1 .09-1.1c1.13-5.51 1.3-13.04 4.4-18.77 2.47-4.56 13.03-.56 16.6.95q4.13 1.74 7.25 3.49 17.73 9.95 31.55 25.19a1.58 1.57 43 0 0 2.4-.08c.9-1.13.74-4.71.95-5.73a1.23 1.23 0 0 1 2.02-.68c4.66 4.1 8.22 11.96 9.76 17.24.96 3.29 1.07 6.11 3.96 7.66a2.31 2.21-27.8 0 0 .95.27q3.14.17 6.03-.87a6.84 6.67 35.7 0 1 2.59-.39l8.71.38a.66.66 0 0 1 .44 1.13c-1.07 1.07-3.96 1.33-5.28 1.44a2.39 2.38 24.1 0 0-1.29.49q-2.18 1.71-1.31 3.76c1.13 2.63 1.16 5.93 1.81 8.07a4.21 4.08 38.1 0 1 .17 1.24c-.04 3.02 1.16 5.66 1.1 8.62q-.05 3.22.77 6.99a8.64 8.23 40.4 0 1 .18 1.73q.01 15.44-.01 20.92 0 2.6-.47 5.19-.28 1.55-1.02 5.16-2.17 10.53-8.32 20.87-2.58 3.31-10.12 10.82-3.98 3.96-6.81 10.71c-3.4 8.12-3.08 17.02 3.18 23.37 8.13 8.25 21.65 7.63 29.74-.24q2.33-2.27 3.46-6.35a1.42 1.42 0 0 0-1.14-1.77q-8.52-1.38-12.38-8.94c-2.2-4.32-3.58-11.02-.74-15.02 3.37-4.74 9.33-6.07 15.45-6.24 7.81-.22 18.4 1.82 19.13 10.72.74 8.99-5.02 18.01-14.49 19.42a1.55 1.54-12.5 0 0-1.26 1.97q1.79 5.95 7.2 9.15c14.17 8.38 33.12-.62 31.19-18.43-1.04-9.66-6.85-16.87-13.98-23.53-6.46-6.04-11.16-13.24-13.53-21.54q-3.79-13.22-2.77-27.39 2.76-6.01 1.84-13.43a5.59 5.56 51 0 1 .25-2.44l.65-1.93a4.96 4.67-35.7 0 0 .23-1.18q.61-9 1-10.37 1.14-4.04 1.51-7.1a2.84 2.83-77.4 0 0-1.91-3.02l-7.73-2.59a.32.32 0 0 1 .1-.63h10.54a5.13 4.84 51.9 0 1 1.46.22q2.52.79 7.47.94a1.62 1.61-68.8 0 0 1.3-.58l1.66-1.98a2.13 2.1-18 0 0 .42-.81q2.09-8.54 7.36-17.09 1.56-2.53 4.37-4.62a.37.37 0 0 1 .57.16l2.19 5.62a.51.49 82.5 0 0 .39.31l.32.05q.38.08.79-.36 13.53-15.02 30.88-25.15c5.95-3.48 13.92-7.2 21.12-7.11 4.81.05 6.49 5.44 7.32 9.24q3.56 16.35 3.72 33.5.03 3.55-.47 6.92ZM78.32 102.35a1.21 1.21 0 0 0 1.68 1.23c6.49-2.73 11.01-4.9 18.49-2.96a1.69 1.69 0 0 0 2.09-1.4l.02-.15a2.36 2.35 13.5 0 0-1.57-2.55q-10.18-3.48-18.92 3.08-1.65 1.24-1.79 2.75Zm99.08-.02q-.14-1.51-1.79-2.74-8.73-6.54-18.9-3.06a2.35 2.34-13.5 0 0-1.56 2.55l.02.15a1.68 1.68 0 0 0 2.09 1.39c7.46-1.94 11.98.22 18.46 2.94a1.21 1.21 0 0 0 1.68-1.23Zm-80.32 16.31a4.77 4.77 0 0 0-4.77-4.77 4.77 4.77 0 0 0-4.77 4.77 4.77 4.77 0 0 0 4.77 4.77 4.77 4.77 0 0 0 4.77-4.77Zm70.89.02a4.75 4.75 0 0 0-4.75-4.75 4.75 4.75 0 0 0-4.75 4.75 4.75 4.75 0 0 0 4.75 4.75 4.75 4.75 0 0 0 4.75-4.75Zm-40.16 36.48q5.33 0 12.32 1.47a.58.57 84.8 0 0 .65-.79c-1.75-4.23-8.56-5.22-12.97-5.22-4.42 0-11.23.99-12.97 5.23a.58.57-84.8 0 0 .65.78q6.99-1.47 12.32-1.47Zm.03 55.41c9.85 0 19.21-5.77 23.55-14.67a.42.42 0 0 0-.41-.6q-14.31 1.41-22.79-9.74-.12-.16-.35-.16-.23 0-.35.16-8.49 11.15-22.79 9.74a.42.42 0 0 0-.42.6c4.34 8.9 13.71 14.67 23.56 14.67Z"/>
    <path fill="#666664" d="M154.25 48.24q-.03.8-.46 1.55-.01-1.01.46-1.55Z"/>
    <path fill="#060605" d="m120.21 49.14-.68.02.68-.02ZM121.81 49.03q-.59.2-1.34.1l1.34-.1ZM113.95 49.52l-1.91.11 1.91-.11ZM103.03 50.82q-.3.11-.6.09a.59.58 82.1 0 1-.5-.38q-.06-.14-.08-.31l.11.33a.41.39-8.3 0 0 .37.26l.7.01ZM105.2 50.54l-1.41.16 1.41-.16ZM235.58 52.43c-.32 8.88-2.23 18.7-7.13 26.21a.61.61 0 0 0 .36.92q5.17 1.36 9.92 5.03a1.16 1.16 0 0 1 .16 1.68c-2.17 2.51-7.63 4.25-11.37 5.29a.47.47 0 0 0-.22.78q7.72 8.22 12.37 19.15a.93.93 0 0 1-1.02 1.28l-12.11-2.04a.45.45 0 0 0-.47.66q5.26 9.62 9.48 19.02 1.51 3.35 1.92 7.05a.52.52 0 0 1-.77.51l-15.3-8.84a.4.39-88.1 0 0-.55.52q9.72 20.1 11.37 42.09.5 6.69-1.08 12.98a.75.75 0 0 1-1.29.31l-8.37-9.66a.64.64 0 0 0-1.12.51q1.87 12.89-1.75 25.8c-2.94 10.51-9.79 21.99-19.43 27.64a.95.94-20.7 0 1-1.41-.63q-1.27-6.65-5.51-12.27a.53.53 0 0 0-.94.19c-3.38 12.77-10.7 22.71-22.59 28.35a.81.81 0 0 1-1.16-.79q.19-2.76.89-5.69.71-2.94.27-10.44.38-.3.77-.16a.4.4 0 0 1 .27.33q.86 6.97-.73 13.76a.71.71 0 0 0 .79.87q1.16-.15 2.88-1.16 4.93-2.86 9.37-8.57 5.47-7.03 7.98-16.51.46-1.74 2.66-1.05a1.22 1.18 81.7 0 1 .66.51c2.5 4.01 4.89 7.29 5.07 10.73a.91.9-13 0 0 1.26.78c3.36-1.41 5.68-4.09 8.17-7.39q6.72-8.88 9.01-17.09c2.19-7.84 4.17-17.92 2.33-25.57q-.38-1.56.3-2.38a1.99 1.92-47.6 0 1 2.91-.18q4.46 4.59 6.89 7.34a.41.41 0 0 0 .71-.17q1.7-6.58.77-14.19a2.95 2.71-61 0 0-.17-.71q-.68-1.81-.85-3.58c-.37-3.75-1.42-10.21-2.94-14.88-2.83-8.67-3.39-12.05-6.79-17.35q-1.37-2.12.97-3.4a1.09 1.07 44.5 0 1 1.03 0l8.65 4.74a.14.11-7 0 1 .05.03q2.21 1.68 4.09 2.3a.38.38 0 0 0 .49-.45q-.53-2.41-1.27-4.19-4.19-10.07-8.96-17.77a2.11 2.11 0 0 1 2.21-3.17c2.75.56 6.88 1.81 9.82 1.14a.47.47 0 0 0 .33-.64q-4.23-10.13-10.93-16.62a1.71 1.71 0 0 1 .57-2.82l9.53-3.72a1.12 1.12 0 0 0 .36-1.86c-2.32-2.18-4.69-2.95-8.36-4.17a2.07 2.07 0 0 1-1.03-3.16q2.91-4.08 3.78-8.39c.85-4.24 2.12-7.9 2.35-12.26q.12-2.17.58-4.19.93-4.09 1.27-.39ZM153.56 50.78q-.45.26-1.04.07l1.04-.07Z"/>
    <path fill="#fdfdfd" d="M138.23 95.86q-1.02 14.17 2.77 27.39c2.37 8.3 7.07 15.5 13.53 21.54 7.13 6.66 12.94 13.87 13.98 23.53 1.93 17.81-17.02 26.81-31.19 18.43q-5.41-3.2-7.2-9.15a1.55 1.54-12.5 0 1 1.26-1.97c9.47-1.41 15.23-10.43 14.49-19.42-.73-8.9-11.32-10.94-19.13-10.72-6.12.17-12.08 1.5-15.45 6.24-2.84 4-1.46 10.7.74 15.02q3.86 7.56 12.38 8.94a1.42 1.42 0 0 1 1.14 1.77q-1.13 4.08-3.46 6.35c-8.09 7.87-21.61 8.49-29.74.24-6.26-6.35-6.58-15.25-3.18-23.37q2.83-6.75 6.81-10.71 7.54-7.51 10.12-10.82 6.17-7.09 8.56-15.85 3.21-11.75 2.88-25.81-.44-18.76-4.37-39.37a.47.47 0 0 1 .43-.56q14.27-.88 28.34-.01a.51.51 0 0 1 .46.61q-3.77 18.44-4.17 37.7Z"/>
    <path fill="#060605" d="m240.92 86.51.01-1.35-.01 1.35Z"/>
    <path fill="#fdfdfd" d="M78.32 102.35q.14-1.51 1.79-2.75 8.74-6.56 18.92-3.08a2.36 2.35 13.5 0 1 1.57 2.55l-.02.15a1.69 1.69 0 0 1-2.09 1.4c-7.48-1.94-12 .23-18.49 2.96a1.21 1.21 0 0 1-1.68-1.23ZM177.4 102.33a1.21 1.21 0 0 1-1.68 1.23c-6.48-2.72-11-4.88-18.46-2.94a1.68 1.68 0 0 1-2.09-1.39l-.02-.15a2.35 2.34-13.5 0 1 1.56-2.55q10.17-3.48 18.9 3.06 1.65 1.23 1.79 2.74Z"/>
    <path fill="#060605" d="M230.08 113.25q-.39-.22-.68.38.04-.15.07-.27a.21.2-80.5 0 1 .22-.16l.39.05Z"/>
    <circle cx="92.31" cy="118.64" r="4.77" fill="#fdfdfd"/>
    <circle cx="163.22" cy="118.66" r="4.75" fill="#fdfdfd"/>
    <path fill="#666664" d="M238.05 139.82q-.2.01-.33.14l-.93.12q-.46-.24-.82-.18 1.16.16 2.08-.08Z"/>
    <path fill="#252520" d="M19.15 140.03q-1.04.3-1.48-.15l1.48.15Z"/>
    <path fill="#060605" d="M237.72 139.96q-.07.35-.93.12l.93-.12Z"/>
    <path fill="#666664" d="M127.81 150.6c4.41 0 11.22.99 12.97 5.22a.58.57 84.8 0 1-.65.79q-6.99-1.47-12.32-1.47t-12.32 1.47a.58.57-84.8 0 1-.65-.78c1.74-4.24 8.55-5.23 12.97-5.23Z"/>
    <path fill="#060605" d="M167.83 228c-9.77 11.29-23.51 19.51-37.39 24.18-3.01 1.01-4.71.24-8.07-.97q-20.05-7.23-35.44-23.46 2.1-.06 2.63.8c1.06 1.69 3.22 3.27 4.82 4.49a.23.23 0 0 0 .34-.07l.16-.27a.09.07 39.3 0 0-.02-.1l-1.43-1.41a.36.36 0 0 1 .21-.61q.5-.07.99.6.09.12.25.09a.11.11 0 0 0 .06-.19l-7.84-9.06a.95.94 37.9 0 0-1.56.19l-1.29 2.59a1.38 1.36-32.1 0 0-.16.68q.15 4.89.11 8.55-.03 3.23-2.24 3.93a.88.87-33.3 0 1-.84-.17q-8.4-7.41-11.99-17.76c-1.05-3.04-1.63-7.71-2.87-11.51q.23-.28.32-.51a.26.26 0 0 0-.44-.25l-.4.51q-2.2 1.3-3.73 3.22-4.12 5.16-5.7 10.96a1.82 1.82 0 0 1-3.37.36q-1.82-3.55-2.5-9.04a2.36 2.31-41.3 0 1 .07-.93q.3-1 .14-4.43a4.36 4.3 50.9 0 1 .12-1.24q2.73-11.44 9.52-21.37c3.84-5.63 15.23-17.67 22.62-11.78a1.59 1.59 0 0 1 .45.61l3.17 7.72a.94.89-77.1 0 0 .13.22l3.5 4.74a1.77 1.68 87.8 0 0 .43.42l7.63 5.14a.72.69-88.9 0 1 .25.27q1.17 2.14 1.54 3.93a2.76 2.52-66.3 0 0 .23.68q6.31 12.93 20.54 15.98 1.88.41 8.66.31 5.07-.07 8.55-1.14 10.83-3.31 16.58-13.16c1.11-1.91 1.57-3.28 2.57-5.65a4.89 4.86 87.7 0 1 2.22-2.42c6.39-3.39 10.73-8.44 11.85-15.64a2.46 2.45 67.1 0 1 .4-.99q2.15-3.13 5.63-2.73c6.22.72 10.53 4.65 15.09 9.45 5.8 6.11 9.42 14.09 11.52 22.06q1.87 7.05 1.29 12.16-.21 1.78-2.55 6.01a.67.67 0 0 1-.7.34q-.63-.1-1.78.82a.34.34 0 0 1-.54-.17q-2.78-9.33-9.79-15.65a.66.66 0 0 0-1.07.3q-.94 3.25-.96 7.49a3.96 3.8 53.3 0 1-.12.96q-1.56 6.68-4.69 12.31a3.33 3.31-8 0 1-.6.79q-1.68 1.65-3.06 3.92a4.85 4.61-7.5 0 1-.71.88q-1.13 1.08-2.95 2.62-1.09.91-1.55.95a1.82 1.81-3.2 0 1-2.03-1.81l.03-7.43a1.92 1.69 41.3 0 0-.06-.46l-1.42-5.3a1.12 1.12 0 0 0-1.89-.49l-1.5 1.54a1.46.68-34 0 0-.11.14q-3.34 4.87-6.72 7.42-4.29 3.23-5.13 4.32a1.87 1.85-82.3 0 1-.75.58q-1.46.63-2.98 2.15a3.92 3.49 3.3 0 1-.67.53q-4.63 2.94-10.99 6.31-.84.45-1.18.88-.35.44-.95.35-.37-.05-1.03.28c-1.94 1.01-4.49 2-4.8 2.62q-.17.32-.76.16-.38-.11-.77.04-.82.31-1.99 1.11a.77.76 40.9 0 1-.8.05q-.17-.09-.19-.09a.11.11 0 0 0-.1.19q.35.35 1.36.19 3.29-.52 6.29-1.72 11.62-4.66 21.84-12.07c3.84-2.78 6.64-6.14 9.89-9.27q.46-.44 1-.18.13.06.17.41Zm-39.97 20.53q.34 0 .7-.21.5-.31.64-.36 23.5-8.04 38.54-26.65a2.47 2.4 3.5 0 1 .64-.55q2.45-1.49 3.39 1.22 2.17 6.24 1.47 14.17a.42.42 0 0 0 .68.37c9.14-7.34 13.57-18.46 13.39-30.01a1.19 1.18-70.9 0 1 1.93-.94q7.79 6.33 11.17 16.13a.68.68 0 0 0 1.24.11c6.21-11.44-2.03-29.47-9.25-38.41-3.79-4.7-12-12.08-18.41-9.13a2.14 2.12-6.7 0 0-1.18 1.48q-2.52 11.77-13.29 16.94a2.73 2.71-3.4 0 0-1.38 1.54c-4.73 13.4-15.78 21.35-30.28 21.35-14.5 0-25.55-7.95-30.28-21.35a2.73 2.71 3.4 0 0-1.38-1.54q-10.77-5.17-13.29-16.94a2.14 2.12 6.7 0 0-1.18-1.48c-6.41-2.95-14.62 4.43-18.41 9.13-7.22 8.94-15.46 26.97-9.25 38.41a.68.68 0 0 0 1.24-.11q3.38-9.8 11.17-16.13a1.19 1.18 70.9 0 1 1.93.94c-.18 11.55 4.25 22.67 13.39 30.01a.42.42 0 0 0 .68-.37q-.7-7.93 1.47-14.17.94-2.71 3.39-1.22a2.47 2.4-3.5 0 1 .64.55q15.04 18.61 38.54 26.65.14.05.64.36.36.21.7.21Z"/>
    <path fill="#fdfdfd" d="M127.86 215.58c14.5 0 25.55-7.95 30.28-21.35a2.73 2.71-3.4 0 1 1.38-1.54q10.77-5.17 13.29-16.94a2.14 2.12-6.7 0 1 1.18-1.48c6.41-2.95 14.62 4.43 18.41 9.13 7.22 8.94 15.46 26.97 9.25 38.41a.68.68 0 0 1-1.24-.11q-3.38-9.8-11.17-16.13a1.19 1.18-70.9 0 0-1.93.94c.18 11.55-4.25 22.67-13.39 30.01a.42.42 0 0 1-.68-.37q.7-7.93-1.47-14.17-.94-2.71-3.39-1.22a2.47 2.4 3.5 0 0-.64.55q-15.04 18.61-38.54 26.65-.14.05-.64.36-.36.21-.7.21-.34 0-.7-.21-.5-.31-.64-.36-23.5-8.04-38.54-26.65a2.47 2.4-3.5 0 0-.64-.55q-2.45-1.49-3.39 1.22-2.17 6.24-1.47 14.17a.42.42 0 0 1-.68.37c-9.14-7.34-13.57-18.46-13.39-30.01a1.19 1.18 70.9 0 0-1.93-.94q-7.79 6.33-11.17 16.13a.68.68 0 0 1-1.24.11c-6.21-11.44 2.03-29.47 9.25-38.41 3.79-4.7 12-12.08 18.41-9.13a2.14 2.12 6.7 0 1 1.18 1.48q2.52 11.77 13.29 16.94a2.73 2.71 3.4 0 1 1.38 1.54c4.73 13.4 15.78 21.35 30.28 21.35Z"/>
    <path fill="#fdfdfd" d="M127.84 210.55c-9.85 0-19.22-5.77-23.56-14.67a.42.42 0 0 1 .42-.6q14.3 1.41 22.79-9.74.12-.16.35-.16.23 0 .35.16 8.48 11.15 22.79 9.74a.42.42 0 0 1 .41.6c-4.34 8.9-13.7 14.67-23.55 14.67Z"/>
    <path fill="#060605" d="M25.68 187.3q-.49.18-1.18.05l1.18-.05ZM231.04 187.37l-1.07-.01 1.07.01Z"/>
    <path fill="#666664" d="M66.26 208.52q-.32.01-.52-.25l.4-.51a.26.26 0 0 1 .44.25q-.09.23-.32.51Z"/>
    <path fill="#060605" d="m57.98 231.34-2.09.04 2.09-.04Z"/>
    <path fill="#666664" d="m91.71 235.1-1.01-1.08q.71.14 1.01 1.08Z"/>
    <path fill="#060605" d="m89 237.45-.09-1.25q-.06.65.09 1.25Z"/>
    <path fill="#666664" d="M89.45 240.25q-.23-.41-.16-.99.24.44.16.99Z"/>
    <path fill="#060605" d="m89.65 241.23-.11-.69q.14.3.11.69ZM89.97 243.05l-.11-.84.11.84ZM90.13 244.06q-.24-.48-.16-1.01.36.42.16 1.01ZM128.74 254.89h-.79q.47-.1.79 0Z"/>
  </g>
</svg>
